<?xml version="1.0" encoding="utf-8"?>
<!-- Generator: Adobe Illustrator 23.0.1, SVG Export Plug-In . SVG Version: 6.00 Build 0)  -->
<svg version="1.1" id="Layer_1" xmlns="http://www.w3.org/2000/svg" xmlns:xlink="http://www.w3.org/1999/xlink" x="0px" y="0px"
	 viewBox="0 0 633 1016" style="enable-background:new 0 0 633 1016;" xml:space="preserve">
<style type="text/css">
	.st0{fill:none;}
</style>
<g>
	<path class="st0" d="M107.73,104.7c-25.04,23.8-25.91,63.83-1.91,88.35c24.02,24.54,63,25.11,87.75,1.29
		c24.82-23.89,25.61-62.64,1.79-87.57C171.6,81.92,132.66,81,107.73,104.7z"/>
	<path class="st0" d="M103.82,824.53c-23.99,24.52-23.12,64.55,1.91,88.35c24.93,23.7,63.87,22.78,87.62-2.07
		c23.83-24.93,23.04-63.67-1.79-87.57C166.81,799.42,127.83,799.99,103.82,824.53z"/>
	<path d="M583.76,453.45c-45.79-52.69-147.11-173.37-174.96-254.9c3.34,42.74,24.53,110.33,74.46,171.09
		c26.1,31.76,61.89,72.25,48.16,83.94c-22.08,18.8-79.11-46.33-124.73-90.2c-47.92-46.09-113.79-123.7-117.43-177.69
		c-1.6-23.67-1.97-46.43-9.07-69.32c-8.18-26.38-22.49-54.03-43.31-72.65c-35.26-31.53-107.66-54.05-175.96,6.98
		c-36.82,32.9-58.18,82.44-43.69,130.47c22.3,73.94,129.72,91.07,162.34,96.11C216.89,283.05,293.16,328.69,332,354
		c39.57,25.79,167.39,121.89,168,155c0.53,28.89-134.97,131.91-175,158c-38.84,25.31-110.11,67.53-147.45,73.3
		c-32.62,5.04-140.04,22.17-162.34,96.11c-14.49,48.04,6.87,97.57,43.69,130.47c68.3,61.03,140.7,38.51,175.96,6.98
		c20.83-18.63,35.13-46.27,43.31-72.65c7.1-22.89,7.47-45.65,9.07-69.32c3.65-54,69.52-131.6,117.43-177.69
		c45.62-43.88,102.65-109,124.73-90.2c13.73,11.69-22.06,52.18-48.16,83.94c-49.92,60.76-71.12,128.36-74.46,171.09
		c27.85-81.53,129.18-202.21,174.96-254.9c10.6-12.2,21.24-42.13,41.69-56.75C602,491,597.31,469.04,583.76,453.45z M193.56,194.34
		c-24.75,23.82-63.73,23.25-87.75-1.29c-23.99-24.52-23.12-64.55,1.91-88.35c24.93-23.7,63.87-22.78,87.62,2.07
		C219.18,131.7,218.39,170.44,193.56,194.34z M193.35,910.81c-23.75,24.85-62.69,25.77-87.62,2.07
		c-25.04-23.8-25.91-63.83-1.91-88.35c24.02-24.54,63-25.11,87.75-1.29C216.39,847.13,217.18,885.88,193.35,910.81z"/>
</g>
</svg>
