<?xml version="1.0" encoding="utf-8"?>
<!-- Generator: Adobe Illustrator 23.0.1, SVG Export Plug-In . SVG Version: 6.00 Build 0)  -->
<svg version="1.1" id="Layer_1" xmlns="http://www.w3.org/2000/svg" xmlns:xlink="http://www.w3.org/1999/xlink" x="0px" y="0px"
	 viewBox="0 0 1076 1055" style="enable-background:new 0 0 1076 1055;" xml:space="preserve">
<g>
	<path d="M1030.68,439.65c-35.37-36.82-88.61-58.18-140.25-43.69c-79.48,22.29-97.9,129.72-103.32,162.33
		c-6.2,37.34-55.26,113.61-82.47,152.45c-27.71,39.57-131.02,167.39-166.61,168c-31.05,0.53-141.8-134.97-169.84-175
		c-27.21-38.84-72.59-110.11-78.79-147.45c-5.42-32.61-23.83-140.04-103.32-162.33c-51.63-14.49-104.88,6.87-140.25,43.69
		c-65.6,68.3-41.39,140.7-7.5,175.96c20.02,20.82,49.74,35.13,78.1,43.31c24.6,7.1,49.06,7.47,74.51,9.07
		c58.04,3.65,141.47,69.52,191.01,117.44c47.16,45.61,117.17,102.65,96.96,124.73c-12.57,13.72-56.09-22.07-90.23-48.16
		c-65.31-49.93-137.98-71.12-183.91-74.46C292.41,813.39,498,966,538,1049c40-85,246.1-233.61,333.75-261.46
		c-45.94,3.34-118.6,24.53-183.92,74.46c-34.14,26.09-77.66,61.88-90.22,48.16c-20.21-22.08,49.79-79.12,96.96-124.73
		c49.54-47.92,132.96-113.79,191.01-117.44c25.44-1.6,49.9-1.97,74.51-9.07c28.35-8.18,58.07-22.49,78.09-43.31
		C1072.07,580.35,1096.29,507.95,1030.68,439.65z M191.61,570.3c-11.59,12.11-26.7,18.51-42,19.1
		c-16.07,0.64-32.36-5.11-45.06-17.31c-11.93-11.47-18.31-26.49-19.06-41.76c-0.1-2.01-0.1-4.02,0-6.03
		c0.67-14.34,6.33-28.53,17.01-39.83c12.77-13.51,30.23-19.98,47.44-19.31c14.67,0.57,29.16,6.35,40.38,17.4
		C214.72,506.57,215.29,545.56,191.61,570.3z M539,979c-16.57,0-30-13.43-30-30s13.43-30,30-30s30,13.43,30,30S555.57,979,539,979z
		 M971.57,574.09c-12.8,12.06-29.18,17.81-45.38,17.34c-15.83-0.46-31.47-6.87-43.44-19.13c-24.17-24.74-23.58-63.73,1.31-87.74
		c11.62-11.21,26.67-17,41.88-17.42c17.33-0.49,34.87,5.99,47.73,19.33C997.71,511.4,996.78,550.34,971.57,574.09z"/>
</g>
<g>
	<path d="M924.07,47.26c-27.66-30.95-69.3-48.91-109.69-36.73c-62.16,18.74-76.56,109.05-80.8,136.48
		c-4.85,31.38-43.22,95.51-64.5,128.16c-37.38,57.36-74.83,129.87-99.59,122.12C543,389,553,371,542,306c-13,65-4,88-30.79,92.67
		c-27.75,4.85-71.24-77.16-105.27-129.39c-21.28-32.65-56.77-92.57-61.62-123.96c-4.24-27.42-18.64-117.73-80.8-136.47
		c-40.39-12.18-82.03,5.77-109.69,36.73c-51.31,57.42-32.37,118.29-5.87,147.93c15.66,17.51,38.9,29.53,61.08,36.41
		c19.24,5.97,38.38,6.28,58.28,7.63c45.39,3.06,110.64,58.44,149.38,98.73c36.89,38.35,91.64,86.29,75.83,104.86
		c-9.82,11.53-74.6-27.33-110.53-30.14c68.55,23.41,140,127,157,237c15-110,77.23-199.73,168-242
		c-35.93,2.81-111.81,48.36-121.63,36.82c-15.81-18.57,38.94-66.51,75.83-104.86c38.75-40.29,103.99-95.67,149.39-98.73
		c19.9-1.34,39.03-1.66,58.27-7.63c22.18-6.88,45.42-18.9,61.08-36.41C956.44,165.55,975.38,104.68,924.07,47.26z M274.59,157.1
		c-20.09,20.87-52.66,21.54-73.62,1.5c-20.89-19.96-21.66-52.7-1.74-73.66c20.01-21.05,53.67-21.78,74.28-1.61
		C294.14,103.52,294.62,136.3,274.59,157.1z M538.5,511c-15.74,0-28.5-12.76-28.5-28.5s12.76-28.5,28.5-28.5s28.5,12.76,28.5,28.5
		S554.24,511,538.5,511z M876.93,160.28c-20.96,20.04-53.53,19.37-73.62-1.5c-20.03-20.8-19.55-53.57,1.09-73.76
		c20.61-20.17,54.26-19.44,74.27,1.6C898.59,107.58,897.82,140.32,876.93,160.28z"/>
</g>
</svg>
