<?xml version="1.0" encoding="utf-8"?>
<!-- Generator: Adobe Illustrator 23.0.1, SVG Export Plug-In . SVG Version: 6.00 Build 0)  -->
<svg version="1.1" id="Layer_1" xmlns="http://www.w3.org/2000/svg" xmlns:xlink="http://www.w3.org/1999/xlink" x="0px" y="0px"
	 viewBox="0 0 2679 1113" style="enable-background:new 0 0 2679 1113;" xml:space="preserve">
<g>
	<path d="M1583.75,854.31c91.87-37.65,163.26-74.77,242.87-122.65c17.35-10.44,42.98-35.46,38.05-55.1
		c-14.05-55.9-146.83-94.59-202.88-97.98c-108-6.53-212.77,12.44-316.29,41.67c-58.71,16.58-117.49,33.69-177.8,43.48
		c-61.26,9.94-122.43,9.09-184.15,4.63c-57.92-4.19-115.8-12.08-173.93-12.7c-63-0.67-133.91,1.71-196.92-0.26
		c-69.77-2.18-148.08-4.74-232.17-8.09c19.53-5.01,219.15-12.22,297.05-22.96c20.89-2.88,76.17-16.61,60.93-51.03
		c-18.88-42.66-176.83-38.41-240.06-41.19c-66.42-2.92-126.39,12.22-178.42,55.46c-22.81,18.95-43.73,38.23-70.57,51.53
		c-30.94,15.33-68.29,26.21-103.11,23.41C87.42,657.78,4.62,611.65,1,497.21c-1.95-61.69,24.48-123.72,80.46-152.01
		c86.16-43.55,194.26,38.94,226.93,64.12c37.4,28.83,88.18,41.83,133.29,52.51c57.43,13.59,114.64,17.88,173.25,23.19
		c10.25,0.93,20.49,1.96,30.7,3.18c53.44,6.43,106.12,19.89,153.96,44.85c21.81,11.38,40.5,27.29,61.47,40.01
		c41.91,25.41,88.11,41.12,135.93,51.08c106.72,22.23,210.64-4.31,314.54-27.69c64.59-14.54,129.16-29.17,193.97-42.71
		c216.64-45.25,380.91,37.3,442.69,70.06c54.42,28.86,126.26,58.1,221.42,67.86c-70.16,7.24-212.62,24.54-263,40
		C1856.24,747.12,1670.78,831.25,1583.75,854.31z M245.39,493.5c0.24-42.94-33.88-77.73-76.8-78.32
		c-42.87-0.59-78.36,34.7-78.33,77.88c0.03,43,34.42,77.45,77.39,77.53C210.76,570.67,245.15,536.56,245.39,493.5z"/>
	<path d="M1332.62,1005.65c39,12,102.78-14.3,128.73-24.98c77.65-31.96,153.69-67.64,229.69-103.29
		c66.46-31.17,131.89-64.46,200.06-91.83c94.91-38.11,197.16-50.61,298.26-60.43c56.33-5.47,131.91-6.5,134.25-33.47
		c2-23-121-54-197.78-89.35c-76.84-35.37-229.84-134.92-280.22-174.65c-55.85-44.05-146.71-123.01-194.75-160.3
		c-50.89-39.51-107.05-71.49-164.53-100.33c-52.25-26.21-178.21-60.54-194.73-32.38c-17,29,32.02,74.19,46,85
		c-31.61-7.44-70.01-40.45-93-64c-41.08-42.08-76.06-65.33-128-93c-59.21-31.54-162-56-178.6-62.16
		c239.6,23.16,407.68,76.67,486.6,104.16c150.52,52.43,265.76,153.09,391,253c96.92,77.32,208.36,156.25,293,199
		c69.74,35.23,304,140,570.44,155.95c-129.44,8.05-260.85,21.71-368.83,31.66c-53.97,4.97-108.55,4.89-162.13,12.33
		c-81.02,11.25-159.52,24.49-236.79,52.02c-154.62,55.09-298.35,135.33-448.72,200.35c-59.48,25.72-85.07,37.78-148.99,48.69
		c-30.7,5.24-112,21-222.23,55.13c74.7-27.29,127.23-62.13,185.23-122.13c49.83-51.55,116.39-104.21,218-132
		C1395.62,901.65,1293.62,993.65,1332.62,1005.65z"/>
	<path d="M962.62,550.65c57.63,9.4,105.78,11.75,180,9c225.86-8.37,506.19-81.59,522-126c21.31-59.88-143-168-287.28-196.53
		c16.08-3.88,147.42,12.89,268.39,77.65c68.89,36.88,146.89,132.88,211.89,175.88c41.7,27.59,113.79,78.92,188,117
		c71.59,36.74,145.54,60.62,175,67c-35.02-2.3-110.79-21.98-176-50c-48.37-20.78-129.92-66.95-150-77c-63.53-31.8-100-54-225-49
		c-40.79,1.63-317.97,73.07-527,76C1063.68,575.76,1015.26,569.29,962.62,550.65z"/>
</g>
</svg>
