<?xml version="1.0" encoding="utf-8"?>
<!-- Generator: Adobe Illustrator 23.0.1, SVG Export Plug-In . SVG Version: 6.00 Build 0)  -->
<svg version="1.1" id="Layer_1" xmlns="http://www.w3.org/2000/svg" xmlns:xlink="http://www.w3.org/1999/xlink" x="0px" y="0px"
	 viewBox="0 0 2341 2341" style="enable-background:new 0 0 2341 2341;" xml:space="preserve">
<g>
	<path d="M805.16,1811.21c14.07-72.52,20.05-134.71,22.61-208.88c0.56-16.17-4.68-47.18-19.13-59.39
		c-41.1-34.73-120.26,0.89-145.5,25.54c-48.63,47.51-79.82,112.39-104.02,184.3c-13.57,40.33-26.48,80.87-40.61,121.01
		c-17.59,49.97-35.23,101.2-60.38,147.99c-20.56,38.25-67.26,80.09-112.41,52.45c-36.07-22.08-38.7-81.58-9.92-110.64
		c22.41-22.63,55.41-24.08,82.17-38.97C473,1894,502.05,1819.3,530.09,1751.56c17.44-42.12,34.8-84.29,52.95-125.77
		c60.69-138.65,180.53-156.94,226.68-162.55c40.66-4.94,88.74-18.03,134.11-56.91c-24.33,39.39-72.12,121.31-83.11,157.22
		C849.74,1599.46,826.46,1751.89,805.16,1811.21z"/>
	<path d="M797.27,2045.42c23.65-9.99,33.32-60.46,37.27-80.97c11.81-61.39,20.61-124.77,29.41-188.11
		c7.69-55.38,13.64-111.84,24.44-165.23c15.04-74.33,49.28-133.19,84.74-189.5c19.76-31.37,50.25-68.77,34.18-89.95
		c-13.7-18.06-85.3,16.56-139.31,27.33c-54.36,10.85-178.58,13.32-224.44,8.21c-50.84-5.66-138.16-20.28-181.51-24.71
		c-45.93-4.69-89.28-1.23-131.18,5.21c-38.09,5.85-111.68,41.41-100.7,70.34c11.31,29.79,60.06,39.61,72.65,40.86
		c-17.73,9.79-54.4,3.88-78.75-2.47c-43.51-11.35-72.61-11.67-111.49-7.06c-44.33,5.26-102.13,36.92-112.87,40.39
		c113.37-98.94,216.43-140.66,266.32-158.49c95.14-34.01,206.23-15.07,320.94-1.54c88.78,10.47,184.56,15.1,246.45,5.84
		c50.99-7.63,189.57-28.58,333.59-160.65c-48.26,68.73-93.78,142.59-131.99,202.33c-19.1,29.86-41.64,56.26-59.02,87.76
		c-26.28,47.64-50.27,95.53-64.72,153.45c-28.92,115.89-37.46,245.2-58.35,366.41c-8.26,47.95-11.19,69.32-30.64,108.41
		c-9.34,18.77-32.89,69.9-56.75,148.7c13.55-56.49,13.18-107.85-0.82-180.55c-12.03-62.47-17.86-133.86,6.45-203.77
		C757.54,1937.6,773.62,2055.41,797.27,2045.42z"/>
	<path d="M357.38,1886.68c29.69-20.95,51.01-42.55,79.86-80.57c87.79-115.71,157.06-306.03,135.52-346.69
		c-29.04-54.83-165.05-55.52-242.53-6.78c4.17-10.68,68.89-61.89,159.65-72.41c51.69-5.99,144.47,27.53,198.42,27.98
		c34.61,0.28,96.74,3.48,151.38-4.2c52.71-7.41,98.27-25.51,114.44-35.05c-15.88,15.27-59.54,37.37-104.11,48.17
		c-33.06,8.01-95.83,13.23-110.45,15.5c-46.27,7.17-75.32,8.35-123.67,72.66c-15.78,20.99-84.88,208.44-169.16,311.96
		C414.88,1856.35,390.85,1875.02,357.38,1886.68z"/>
</g>
<g>
	<path d="M1535.07,529.57c-14.07,72.52-20.05,134.71-22.61,208.88c-0.56,16.17,4.68,47.18,19.13,59.39
		c41.1,34.73,120.26-0.89,145.5-25.54c48.63-47.51,79.82-112.39,104.02-184.3c13.57-40.33,26.48-80.87,40.61-121.01
		c17.59-49.97,35.23-101.2,60.38-147.99c20.56-38.25,67.26-80.09,112.41-52.45c36.07,22.08,38.7,81.58,9.92,110.64
		c-22.41,22.63-55.41,24.08-82.17,38.97c-55.03,30.62-84.08,105.32-112.13,173.06c-17.44,42.12-34.8,84.29-52.95,125.77
		c-60.69,138.65-180.53,156.94-226.68,162.55c-40.66,4.94-88.74,18.03-134.11,56.91c24.33-39.39,72.12-121.31,83.11-157.22
		C1490.49,741.32,1513.76,588.89,1535.07,529.57z"/>
	<path d="M1542.95,295.36c-23.65,9.99-33.32,60.46-37.27,80.97c-11.81,61.39-20.61,124.77-29.41,188.11
		c-7.69,55.38-13.64,111.84-24.44,165.23c-15.04,74.33-49.28,133.19-84.74,189.5c-19.76,31.37-50.25,68.77-34.18,89.95
		c13.7,18.06,85.3-16.56,139.31-27.33c54.36-10.85,178.58-13.32,224.44-8.21c50.84,5.66,138.16,20.28,181.51,24.71
		c45.93,4.69,89.28,1.23,131.18-5.21c38.09-5.85,111.68-41.41,100.7-70.34c-11.31-29.79-60.06-39.61-72.65-40.86
		c17.73-9.79,54.4-3.88,78.75,2.47c43.51,11.35,72.61,11.67,111.49,7.06c44.33-5.26,102.13-36.92,112.87-40.39
		c-113.37,98.94-216.43,140.66-266.32,158.49c-95.14,34.01-206.23,15.07-320.94,1.54c-88.78-10.47-184.56-15.1-246.45-5.84
		c-50.99,7.63-189.57,28.58-333.59,160.65c48.26-68.73,93.78-142.59,131.99-202.33c19.1-29.86,41.64-56.26,59.02-87.76
		c26.28-47.64,50.27-95.53,64.72-153.45c28.92-115.89,37.46-245.2,58.35-366.41c8.26-47.95,11.19-69.32,30.64-108.41
		c9.34-18.77,32.89-69.9,56.75-148.7c-13.55,56.49-13.18,107.85,0.82,180.55c12.03,62.47,17.86,133.86-6.45,203.77
		C1582.69,403.18,1566.6,285.37,1542.95,295.36z"/>
	<path d="M1982.84,454.1c-29.69,20.95-51.01,42.55-79.86,80.57c-87.79,115.71-157.06,306.03-135.52,346.69
		c29.04,54.83,165.05,55.52,242.53,6.78c-4.17,10.68-68.89,61.89-159.65,72.41c-51.69,5.99-144.47-27.53-198.42-27.98
		c-34.61-0.28-96.74-3.48-151.38,4.2c-52.71,7.41-98.27,25.51-114.44,35.05c15.88-15.27,59.54-37.37,104.11-48.17
		c33.06-8.01,95.83-13.23,110.45-15.5c46.27-7.17,75.32-8.35,123.67-72.66c15.78-20.99,84.88-208.44,169.16-311.96
		C1925.34,484.43,1949.38,465.76,1982.84,454.1z"/>
</g>
<g>
	<path d="M529.29,805.43c72.52,14.07,134.71,20.05,208.88,22.61c16.17,0.56,47.18-4.68,59.39-19.13
		c34.73-41.1-0.89-120.26-25.54-145.5c-47.51-48.63-112.39-79.82-184.3-104.02c-40.33-13.57-80.87-26.48-121.01-40.61
		c-49.97-17.59-101.2-35.23-147.99-60.38c-38.25-20.56-80.09-67.26-52.45-112.41c22.08-36.07,81.58-38.7,110.64-9.92
		c22.63,22.41,24.08,55.41,38.97,82.17c30.62,55.03,105.32,84.08,173.06,112.13c42.12,17.44,84.29,34.8,125.77,52.95
		c138.65,60.69,156.94,180.53,162.55,226.68c4.94,40.66,18.03,88.74,56.91,134.11c-39.39-24.33-121.31-72.12-157.22-83.11
		C741.04,850.01,588.61,826.74,529.29,805.43z"/>
	<path d="M295.08,797.55c9.99,23.65,60.46,33.32,80.97,37.27c61.39,11.81,124.77,20.61,188.11,29.41
		c55.38,7.69,111.84,13.64,165.23,24.44c74.33,15.04,133.19,49.28,189.5,84.74c31.37,19.76,68.77,50.25,89.95,34.18
		c18.06-13.7-16.56-85.3-27.33-139.31c-10.85-54.36-13.32-178.58-8.21-224.44C978.95,593,993.57,505.68,998,462.33
		c4.69-45.93,1.23-89.28-5.21-131.18c-5.85-38.09-41.41-111.68-70.34-100.7c-29.79,11.31-39.61,60.06-40.86,72.65
		c-9.79-17.73-3.88-54.4,2.47-78.75c11.35-43.51,11.67-72.61,7.06-111.49C885.85,68.53,854.2,10.73,850.73-0.01
		c98.94,113.37,140.66,216.43,158.49,266.32c34.01,95.14,15.07,206.23,1.54,320.94c-10.47,88.78-15.1,184.56-5.84,246.45
		c7.63,50.99,28.58,189.57,160.65,333.59c-68.73-48.26-142.59-93.78-202.33-131.99c-29.86-19.1-56.26-41.64-87.76-59.02
		c-47.64-26.28-95.53-50.27-153.45-64.72c-115.89-28.92-245.2-37.46-366.41-58.35c-47.95-8.26-69.32-11.19-108.41-30.64
		c-18.77-9.34-69.9-32.89-148.7-56.75C155.02,779.36,206.37,779,279.08,765c62.47-12.03,133.86-17.86,203.77,6.45
		C402.9,757.82,285.09,773.9,295.08,797.55z"/>
	<path d="M453.82,357.66c20.95,29.69,42.55,51.01,80.57,79.86c115.71,87.79,306.03,157.06,346.69,135.52
		c54.83-29.04,55.52-165.05,6.78-242.53c10.68,4.17,61.89,68.89,72.41,159.65c5.99,51.69-27.53,144.47-27.98,198.42
		c-0.28,34.61-3.48,96.74,4.2,151.38c7.41,52.71,25.51,98.27,35.05,114.44c-15.27-15.88-37.37-59.54-48.17-104.11
		c-8.01-33.06-13.23-95.83-15.5-110.45c-7.17-46.27-8.35-75.32-72.66-123.67C814.22,600.38,626.76,531.28,523.25,447
		C484.15,415.16,465.49,391.13,453.82,357.66z"/>
</g>
<g>
	<path d="M1810.93,1535.35c-72.52-14.07-134.71-20.05-208.88-22.61c-16.17-0.56-47.18,4.68-59.39,19.13
		c-34.73,41.1,0.89,120.26,25.54,145.5c47.51,48.63,112.39,79.82,184.3,104.02c40.33,13.57,80.87,26.48,121.01,40.61
		c49.97,17.59,101.2,35.23,147.99,60.38c38.25,20.56,80.09,67.26,52.45,112.41c-22.08,36.07-81.58,38.7-110.64,9.92
		c-22.63-22.41-24.08-55.41-38.97-82.17c-30.62-55.03-105.32-84.08-173.06-112.13c-42.12-17.44-84.29-34.8-125.77-52.95
		c-138.65-60.69-156.94-180.53-162.55-226.68c-4.94-40.66-18.03-88.74-56.91-134.11c39.39,24.33,121.31,72.12,157.22,83.11
		C1599.18,1490.77,1751.61,1514.04,1810.93,1535.35z"/>
	<path d="M2045.15,1543.23c-9.99-23.65-60.46-33.32-80.97-37.27c-61.39-11.81-124.77-20.61-188.11-29.41
		c-55.38-7.69-111.84-13.64-165.23-24.44c-74.33-15.04-133.19-49.28-189.5-84.74c-31.37-19.76-68.77-50.25-89.95-34.18
		c-18.06,13.7,16.56,85.3,27.33,139.31c10.85,54.36,13.32,178.58,8.21,224.44c-5.66,50.84-20.28,138.16-24.71,181.51
		c-4.69,45.93-1.23,89.28,5.21,131.18c5.85,38.09,41.41,111.68,70.34,100.7c29.79-11.31,39.61-60.06,40.86-72.65
		c9.79,17.73,3.88,54.4-2.47,78.75c-11.35,43.51-11.67,72.61-7.06,111.49c5.26,44.33,36.92,102.13,40.39,112.87
		c-98.94-113.37-140.66-216.43-158.49-266.32c-34.01-95.14-15.07-206.23-1.54-320.94c10.47-88.78,15.1-184.56,5.84-246.45
		c-7.63-50.99-28.58-189.57-160.65-333.59c68.73,48.26,142.59,93.78,202.33,131.99c29.86,19.1,56.26,41.64,87.76,59.02
		c47.64,26.28,95.53,50.27,153.45,64.72c115.89,28.92,245.2,37.46,366.41,58.35c47.95,8.26,69.32,11.19,108.41,30.64
		c18.77,9.34,69.9,32.89,148.7,56.75c-56.49-13.55-107.85-13.18-180.55,0.82c-62.47,12.03-133.86,17.86-203.77-6.45
		C1937.32,1582.96,2055.14,1566.88,2045.15,1543.23z"/>
	<path d="M1886.4,1983.12c-20.95-29.69-42.55-51.01-80.57-79.86c-115.71-87.79-306.03-157.06-346.69-135.52
		c-54.83,29.04-55.52,165.05-6.78,242.53c-10.68-4.17-61.89-68.89-72.41-159.65c-5.99-51.69,27.53-144.47,27.98-198.42
		c0.28-34.61,3.48-96.74-4.2-151.38c-7.41-52.71-25.51-98.27-35.05-114.44c15.27,15.88,37.37,59.54,48.17,104.11
		c8.01,33.06,13.23,95.83,15.5,110.45c7.17,46.27,8.35,75.32,72.66,123.67c20.99,15.78,208.44,84.88,311.96,169.16
		C1856.07,1925.62,1874.74,1949.66,1886.4,1983.12z"/>
</g>
</svg>
