<?xml version="1.0" encoding="utf-8"?>
<!-- Generator: Adobe Illustrator 23.0.1, SVG Export Plug-In . SVG Version: 6.00 Build 0)  -->
<svg version="1.1" id="Layer_1" xmlns="http://www.w3.org/2000/svg" xmlns:xlink="http://www.w3.org/1999/xlink" x="0px" y="0px"
	 viewBox="0 0 2009 2008" style="enable-background:new 0 0 2009 2008;" xml:space="preserve">
<style type="text/css">
	.st0{fill:none;}
</style>
<g>
	<path class="st0" d="M174.72,868.57c-42.87,0.46-77.49,36.61-76.4,79.78c1.09,42.98,36.31,76.58,79.27,75.61
		c43.1-0.98,76.64-35.92,75.82-78.98C252.6,902.06,217.63,868.11,174.72,868.57z"/>
	<path class="st0" d="M866.16,1832.83c0.46,42.87,36.61,77.49,79.78,76.4c42.98-1.09,76.58-36.31,75.61-79.27
		c-0.98-43.1-35.92-76.64-78.98-75.82C899.65,1754.95,865.7,1789.91,866.16,1832.83z"/>
	<path class="st0" d="M1137.02,179.17c-0.46-42.87-36.61-77.49-79.78-76.4c-42.98,1.09-76.58,36.31-75.61,79.27
		c0.98,43.1,35.92,76.64,78.98,75.82C1103.54,257.05,1137.49,222.09,1137.02,179.17z"/>
	<path class="st0" d="M1830.47,982.91c-43.1,0.98-76.64,35.92-75.82,78.98c0.82,42.93,35.78,76.88,78.7,76.42
		c42.87-0.46,77.49-36.61,76.4-79.78C1908.65,1015.54,1873.43,981.94,1830.47,982.91z"/>
	<path d="M1998.86,1052.18c-6.43-114.32-90.33-158.4-149.36-161.69c-34.87-1.95-71.95,9.85-102.5,25.93
		c-26.5,13.95-46.95,33.74-69.29,53.25c-50.95,44.5-110.53,61.12-177,59.82c-63.28-1.23-149.66,4.49-151.98-24.41
		c-1.44-17.97,52.49-21.29,93.41-25.3c78.26-7.66,141.05-40.47,173.63-68.33c-77.34,37.96-234.33,51.65-303.96,56.53
		c-20.79,1.46-41.47,4.46-62.07,7.52c-14.22,2.11-28.42,4.32-42.62,6.51c-19.85,3.06-39.36,7.14-59.37,8.66
		C1117,993,1075.06,987.94,1047,961c-25-24-25.71-64-26.6-74.84c-1.93-23.57,1.36-47.22,6.62-70.17c5.02-21.89,9-43.79,13.27-65.83
		c8.29-42.84,16.59-85.68,24.88-128.51c8.46-43.69,16.92-87.39,25.38-131.08c10.23-52.85,20.74-106.54,45.45-154.37
		c23.46-45.42,59.28-84.65,75.21-133.23c10.3-31.41,11.51-66.35-0.11-97.3c-21.95-58.47-87.08-92.97-149.54-92.94
		c-39.3,0.02-78.86,11.93-110.31,35.51s-54.28,59-60.55,97.8c-7.2,44.51,7.37,90.43,31.57,128.48
		c22.93,36.06,54.29,66.45,74.97,103.85c41.88,75.74,34.37,168.02,25.69,254.13c-0.77,7.67-1.68,15.72-6.09,22.05
		s-13.54,10.08-20.08,5.99c-4.36-2.73-6.34-7.98-7.77-12.93c-7.58-26.37-7.41-54.25-10.47-81.52
		c-6.87-61.19-30.63-120.39-67.95-169.36c54.41,128.18,46.02,273.12,69.26,410.42C984.8,836.52,993.4,930.21,964,963
		c-26,29-111.06,25.43-124.4,23.23c-14.25-2.35-28.36-5.32-42.45-8.48c-24.05-5.41-47.96-11.42-71.83-17.58
		c-40.58-10.46-218.7-39.48-276.44-51.66c-45.36-9.57-96.44-21.32-134.54-49.22c-33.29-24.38-143.37-104.18-228.44-58.53
		C30.64,830.41,5.73,893.08,9.2,954.7c6.43,114.32,90.33,158.4,149.36,161.69c34.87,1.95,71.95-9.85,102.5-25.93
		c26.5-13.95,46.95-33.74,69.29-53.25c50.95-44.5,110.53-61.12,177-59.82c63.28,1.23,149.66-4.49,151.98,24.41
		c1.44,17.97-52.49,21.29-93.41,25.3c-78.26,7.66-141.05,40.47-173.63,68.33c77.34-37.96,234.33-51.65,303.96-56.53
		c20.73-1.45,117.41-21.06,143.75-19.91c33.66,1.47,85.73-2.81,119,28c27,25,29,100,21.97,137.09
		c-4.9,25.88-11.37,51.44-17.81,76.97c-1.78,7.06-3.58,14.11-5.4,21.16c-10.46,40.58-39.48,218.7-51.66,276.44
		c-9.57,45.36-21.32,96.44-49.22,134.54c-24.38,33.29-104.18,143.37-58.53,228.44c29.66,55.26,92.32,80.17,153.94,76.71
		c114.32-6.43,158.4-90.33,161.69-149.36c1.95-34.87-9.85-71.95-25.93-102.5c-13.95-26.5-33.74-46.95-53.25-69.29
		c-44.5-50.95-61.12-110.53-59.82-177c1.23-63.28-4.49-149.66,24.41-151.98c17.97-1.44,21.29,52.49,25.3,93.41
		c7.66,78.26,40.47,141.05,68.33,173.63c-37.96-77.34-51.65-234.33-56.53-303.96c-1.44-20.61-4.41-41.12-7.45-61.54
		c-4.57-30.81-9.15-61.52-14.07-92.21c-6.99-43.55,6.35-95.83,33.01-120.55c15.66-14.51,69-28,113.74-19.21
		c14.13,2.78,28.23,5.75,42.25,9c23.65,5.49,47.18,11.47,70.64,17.74c2.71,0.72,5.4,1.48,8.11,2.18
		c40.58,10.46,218.7,39.48,276.44,51.66c45.36,9.57,96.44,21.32,134.54,49.22c33.29,24.38,143.37,104.18,228.44,58.53
		C1977.42,1176.46,2002.33,1113.8,1998.86,1052.18z M981.63,182.05c-0.97-42.96,32.63-78.19,75.61-79.27
		c43.17-1.09,79.32,33.52,79.78,76.4c0.46,42.92-33.49,77.88-76.42,78.7C1017.55,258.69,982.6,225.15,981.63,182.05z
		 M177.59,1023.96c-42.96,0.97-78.19-32.63-79.27-75.61c-1.09-43.17,33.52-79.32,76.4-79.78c42.92-0.46,77.88,33.49,78.7,76.42
		C254.24,988.05,220.69,1022.99,177.59,1023.96z M1021.56,1829.95c0.97,42.96-32.63,78.19-75.61,79.27
		c-43.17,1.09-79.32-33.52-79.78-76.4c-0.46-42.92,33.49-77.88,76.42-78.7C985.64,1753.31,1020.58,1786.85,1021.56,1829.95z
		 M1833.34,1138.31c-42.92,0.46-77.88-33.49-78.7-76.42c-0.82-43.06,32.73-78,75.82-78.98c42.96-0.97,78.19,32.63,79.27,75.61
		C1910.83,1101.7,1876.22,1137.84,1833.34,1138.31z"/>
</g>
</svg>
