<svg id="Layer_4" data-name="Layer 4" xmlns="http://www.w3.org/2000/svg" viewBox="0 0 87.4 98.4">
	<path class="cls-1" d="M18.7,86.9A51,51,0,0,1,9.9,75.1,43.7,43.7,0,0,1,4.5,56.9c-.1-1.7-.1-4.1.2-4.1s.8,4.6,2.8,10.6a58.8,58.8,0,0,0,6,11.9c3.8,5.6,7.7,9.2,7.9,9.1a66.3,66.3,0,0,1-7-10c-.4-.6-1.4-2.5-2.6-5C9.9,65,7.6,60,7.3,53.8A27.2,27.2,0,0,1,8.7,43.4a29,29,0,0,1,8.2-13.2A9.3,9.3,0,0,1,23,27.4a9.7,9.7,0,0,1,3.4.6c5.4,1.8,6.6,5.8,10.9,8.1s10.4,1.2,11.6.9c7.8-2.4,9.6-10.2,9.7-10.7A17.7,17.7,0,0,0,51.2,8.8C44.2,4.2,34.4,5.9,29,9c-2.7,1.7-6.4,4.9-8,3.8a1.5,1.5,0,0,1-.6-1.2C19.9,8.4,27,4.9,31.7,3.4,42.7-.3,53,2.3,53,2.2s-14.8-5.3-28.1.6c-8,3.5-12.1,9.5-15.5,14.5A52.8,52.8,0,0,0,.6,39.8c-.5,3.7-3.5,25.9,11.9,43A58.9,58.9,0,0,0,27.2,94.3,107.4,107.4,0,0,1,18.7,86.9Zm21-67.1A4.9,4.9,0,0,1,44,16.7a5.3,5.3,0,0,1,4.7,2.5,6.4,6.4,0,0,1,.3,5.4,4.2,4.2,0,0,1-1.1,1.5l-1.1.6a5.3,5.3,0,0,1-2.7.6C40,27.1,38.5,23.2,39.7,19.8Z"/>
	<path class="cls-1" d="M59.5,4.5A111.6,111.6,0,0,1,68,11.9a53.3,53.3,0,0,1,8.8,11.8,45,45,0,0,1,5.5,18.2c.1,1.7-.1,1.5-.4,1.5s-.6-2-2.7-8a49.7,49.7,0,0,0-6-11.9,40.8,40.8,0,0,0-7.8-9.1,76.3,76.3,0,0,1,7,10c.3.6,1.4,2.5,2.5,5.1,2,4.3,4.3,9.3,4.6,15.5a32.6,32.6,0,0,1-1.4,10.5c-.5,1.4-2.6,8.2-8.2,13.1-1.9,1.7-3.8,2.8-6.1,2.8a12.1,12.1,0,0,1-3.4-.5c-5.5-1.9-6.6-5.8-11-8.2S39,61.5,37.9,61.9c-7.8,2.3-9.6,10.2-9.7,10.6C26.8,79,30.1,86.3,35.6,90s16.8,3,22.2-.2c2.7-1.6,6.4-4.9,8-3.8a1.7,1.7,0,0,1,.6,1.2c.5,3.3-6.6,6.7-11.3,8.2a42.8,42.8,0,0,1-21.4,1.2c.1.2,15.3,4.4,28.2-.6,9-3.4,14.1-10.4,16.5-13.6a47.6,47.6,0,0,0,8.7-23.9c.3-2.9,2.4-25.3-12.9-42.4A53,53,0,0,0,59.5,4.5ZM47.6,79.3a5.1,5.1,0,0,1-4.1,3,6.2,6.2,0,0,1-4.8-2,4.8,4.8,0,0,1-.8-1.6,2,2,0,0,1,0-1.1,5.5,5.5,0,0,1,.5-2.6c1.9-3.4,5.9-3.1,8.3-.6A4.5,4.5,0,0,1,47.6,79.3Z"/>
</svg>