<svg id="Layer_4" data-name="Layer 4" xmlns="http://www.w3.org/2000/svg" viewBox="0 0 500.2 199.5">
	<path class="cls-1" d="M67.2,88.3c-2.1-.5-5.3-.8-11.5-1.3s-9.2-.5-12.3-1.9c-1.1-.5-5.5-2.4-8.1-6.1-5.8-8.5-1.8-25,8.8-30.1,6.3-3,15.5-2.3,18.5,2.2a15.7,15.7,0,0,1,2.1,9.2,25.1,25.1,0,0,0-.3,3.4c-.1,2.4-.1,4.3,1,6s6.1,3.9,8.3,3.4a13.6,13.6,0,0,0,3.4-1.7l.2-.2c1.4-1,2.7-3.7,2.8-6.4s-1.4-6.2-3-8.6a29.4,29.4,0,0,0-10-9.8c-1.2-.7-13.7-7.6-25.4-1.5S28.6,62.7,27.9,66.1C26,75.4,29.4,82.2,26.3,84s-9.5-3.8-9.5-3.6,3.9,4,10.7,6.7S41.1,89.7,55,89.6c.7,0,2.3-.2,4.5-.1a38.2,38.2,0,0,1,10.7,1.6c6.9,2.3,11.4,7.8,13.3,10.4C77.5,92.4,71.6,89.4,67.2,88.3Z"/>
	<path class="cls-1" d="M70.9,94.1c-9.8-4.8-16.1-.1-35.4-2.2A32.7,32.7,0,0,1,22,87.7a63.3,63.3,0,0,1-5.7-4.4c-.2.2,4.2,5.1,8.1,8.2C40.2,104,54.1,94,66,103.9c9.8,8.2,9.1,22.5,9,24.2-.6,11.3-7.4,23.5-19,26.6-7.6,2-16.9-2.2-20.5-9.1a10,10,0,0,1-.3-9.2c.9-1.6,2.3-2.9,3.3-4.5l.6-1.3a7,7,0,0,0,.2-4.3,6.4,6.4,0,0,0-4.7-4.3,7.3,7.3,0,0,0-6.2,1.8c-2.2,2-3,5-3.2,8A22.1,22.1,0,0,0,32.3,149l4.3,3.5a3.2,3.2,0,0,1,1.1,1.7,1.5,1.5,0,0,1-.2.8c-.5.6-1.8.1-2.3,0C26.9,152.4,23,143.1,23,143.1a32.7,32.7,0,0,1-2.2-10.6c-.3,0-1,5.6,1.1,11.6a25.7,25.7,0,0,0,9.2,12c6.8,4.8,14,4.6,17.3,4.5s14.8-.6,23.7-10.8A35.4,35.4,0,0,0,80,132.7c.5-2.7,2.1-11.5-1.8-20.7s-9.5-13.1-8.3-14.5,2.6.1,4.5.8a19.8,19.8,0,0,1,8.2,6A30.2,30.2,0,0,0,70.9,94.1Z"/>
	<path class="cls-1" d="M52.3,64.1c-2.6-1.2-6.8.9-7.2,3.7s.5,5.8,2.9,7.3a5.6,5.6,0,0,0,6.8-.5,4.9,4.9,0,0,0,1.4-4A7.9,7.9,0,0,0,52.3,64.1Z"/>
	<path class="cls-1" d="M48.3,130.7a7.5,7.5,0,0,0,.2,4.4,7.8,7.8,0,0,0,7.8,4.4c3.7-.3,5.6-3.4,6.1-4.1a11.1,11.1,0,0,0,1.5-5.6c-.3-6.7-4.7-11.9-5.3-12.7a23.6,23.6,0,0,0-14.2-7.3A25.7,25.7,0,0,0,30,111.7a18.9,18.9,0,0,1,7.9-1c2.3.1,7.9.5,11.4,5,1.8,2.1,3.9,6.5,2.4,9.8S49,128,48.3,130.7Z"/>

	<path/>
	
	<path class="cls-1" d="M143.9,66.8a89.3,89.3,0,0,0,7.3-5.7c2.8-2.5,5-4.8,6.4-6.3h0a38.4,38.4,0,0,1-9.2,6.7c-4.6,2.3-11.4,5.8-15.7,3.1s-3.8-7.3-4.7-14.5a59.6,59.6,0,0,1-.5-8.7c-.2,2.4-.5,5.9-.9,10-.7,7.4-1.1,11.1-1.6,14.2-.9,6-2,13-5.8,20.5-1.4,2.7-7.9,15.4-14.7,14.6-2.3-.3-4.2-1.9-5.9-4.6-4.8-7.2-8.2-15.5-9.8-29.3-1.2-10.5-1.2-18.5-1.4-18.5s0,4.7-.8,11c-1,8.5-1.5,12.8-4.8,15.7s-9.2,3.4-11.9,3.4-8.7-.8-8.7-.7h.1a51,51,0,0,1,5.9,1.5c6,1.8,19.2,5.7,27.2,15.2,6.7,7.8,7.7,16.9,9.5,33.6.8,6.7,1.2,13.2,1.4,19,.6,12.5.3,21.4.5,21.4s.4-13.3,2-31.7c.2-1.9,0-.2.7-7.5,1.2-12,1.6-16.8,4.1-23.7l.2-.8a71.1,71.1,0,0,1,15.4-24.6A124.2,124.2,0,0,1,143.9,66.8Z"/>
	<path class="cls-1" d="M137.8,57.6c3.1.6,5.3-1.5,6.3-4.4a3,3,0,0,0-.4-2.9,3.6,3.6,0,0,0-2.9-1.2c-2.9.3-6,3.9-4.8,6.8C136.4,56.8,136.9,57.5,137.8,57.6Z"/>
	<path class="cls-1" d="M101.3,128.8c-.6-5.1-1.4-9.9-1.6-9.9s.7,6.4,1,15.6a98.5,98.5,0,0,1-1.1,20.2c-.4,3.2-.9,6.6-2.6,9.4s-4.6,4.7-6.1,7.7-1.6,7.3-1.5,8a6.2,6.2,0,0,0,2.1,3.4,3.7,3.7,0,0,0,2.1.9c3.1.2,6.3-4.2,6.9-5.1,3.1-4.5,2.7-9.4,2.3-23.3S102.3,136.9,101.3,128.8Z"/>

	<path/>

	<path class="cls-1" d="M172.1,73.3c3.4-4.2,5.7-6.8,7.4-10.7,2.5-5.8,2.7-11.3,2.3-11.4s-.6,6.5-5.4,13.2c-3.7,5.1-10.3,10.5-10.9,11l-.9.7L159.4,80c-3.9,2.8-7.9,5.6-11.6,8.7-8.6,7.1-23.9,20-29.6,38.5-3.5,11.3-.7,16,.5,17.6a10.4,10.4,0,0,0,6.5,4.1c4.6.7,9.1-2.3,11.5-5.4,4.2-5.4.9-10,2.9-23.2a53.6,53.6,0,0,1,4.4-15.4c2.8-6.1,6.8-10,14.5-17.9S167,79.3,172.1,73.3Zm-41.8,72.3h0Zm0-.1c0-.2-.1-.4.1-.6h.3C130.7,145.2,130.4,145.3,130.3,145.5Z"/>
	<path class="cls-1" d="M172.1,88.4c2.2-3.1,5-7.7,8.7-3.1a11.4,11.4,0,0,1,1.9,5.7,34.9,34.9,0,0,0,.2,3.5c1.5,0,.6-13.4.5-14.3-.4-3.8-1.2-7.4-.9-11.3.6-7.2,4.4-13,6.4-19.7a59.2,59.2,0,0,0,2.1-9.9c-.6,5.3-3.2,10.9-5.4,15.7-3.3,7.3-7.7,14-10.9,21.4s-5.7,13.4-8.6,20c-4,8.8-7.3,16-10.9,19.3a34.8,34.8,0,0,0-5.7,6.4,25.5,25.5,0,0,0-1.8,2.8c-2.8,5.1-3.6,13.3.3,19,.6.8,3.8,5.6,8.5,5.4s5.4-2.5,6.2-3.4c4-4.3,3.3-10.5,3.1-13.1a24.1,24.1,0,0,0-1.8-7c-2.9-7.4-1.6-15.7,1.1-22.9C167,97.9,169,92.8,172.1,88.4Zm-17,51.6v-.2h.1Z"/>
	<path class="cls-1" d="M201.5,26.1s-.7,2.4-1.4,4.6c-3.4,10.1-6.6,14.2-9.8,21.9-2.2,5.4-3.9,9.5-4.7,15.5-1.2,9.5,1.5,12.1.3,22a52.4,52.4,0,0,1-4.2,14.6c-2.8,6.8-6.2,12.1-8.2,22-.1.3-.1.5-.2.8-.5,3.1-2.4,16,4.2,20.5a10.6,10.6,0,0,0,7.4,1.5c4.5-.7,7-4.3,8.1-5.8,4.6-6.5,3.4-15.9.7-34.9-2-14.6-3.7-26.2-3.3-38.2a83.3,83.3,0,0,1,1.5-12.2c1.3-5.9,2.7-8.5,5-14.8a131.2,131.2,0,0,0,6.2-23.2S202.6,22.5,201.5,26.1Zm-16.1,73h0Zm-1.9,21.3c3.8-6.2,3-11.8,3.9-11.8s.1,3.8,1.4,11.5c.4,2.4.9,4.6-.3,6.5a4.6,4.6,0,0,1-3.1,1.8,4.3,4.3,0,0,1-4.3-2.8C180.7,123.9,182.1,122.5,183.5,120.4Zm6.6,18.4a6.4,6.4,0,0,1-8.6,4.7,6.1,6.1,0,1,1,8.6-4.7Z"/>

	<path/>

	<path class="cls-1" d="M210.6,71.2a80.6,80.6,0,0,0,3.2,11.3c2.5,6.8,5.4,16.3,6.9,22.3,3.2,12.6,3.6,22.4,3.9,22.3s-.2-3-.5-9.2c-.4-8-.1-10.1-.8-15.8-.3-2.5-.6-4.9-1-7.3-1.8-11.2-4.7-22.5-.6-24.8,1.9-1,5,.3,5.5.5,3.4,1.5,3.9,4.3,6.9,8.7a37.1,37.1,0,0,0,11.2,10.9c6.2,3.7,12.1,2.2,19.6,7.2a30.7,30.7,0,0,1,5,4.2c-2-4.2-3.4-7.2-3.7-8.1a4.5,4.5,0,0,0-.3-.8,12.4,12.4,0,0,1-.4-1.6,37.6,37.6,0,0,1-.9-14c.4-4,.9-3.5,1.6-8.1,1.1-8,1.7-12.1-.1-15.3-3.6-6.7-15.7-8.9-21.4-8.5a30.1,30.1,0,0,1-9.7-.9,14,14,0,0,1-2.7-1.1c-6.1-3.3-8.5-9.4-9.2-11.1s-3.2-8.2-.7-13.9a16,16,0,0,1,3.8-5.1,16.1,16.1,0,0,0-5.9,7.8c-1.7,5.2-.5,13.1-.3,14.5s.6,3.8-.7,4.8a2.8,2.8,0,0,1-2.2.3,3.1,3.1,0,0,1-1.7-1.1c-1.7-2.2-1.8-6.1-1.7-6.7s-1.5,5.8.9,10,8.8,3.8,21.6,9.6c5.7,2.6,10.8,4.8,15.9,9.7a31.7,31.7,0,0,1,7.3,10.4c1,2.4,4.2,10.5.4,15.2a7.7,7.7,0,0,1-3.9,2.6c-3.2.9-6.4-.9-9.3-3-10.8-8.1-9-17.2-18.9-25-6.4-5-11-4.3-14.3-10.2a19.6,19.6,0,0,1-2.2-11.2c-.3,1.5-.8,3.7-1.1,6.3a79,79,0,0,0-.3,19.6C210,68.3,210.3,69.8,210.6,71.2Zm44.7-11.8c-4.5-4.1-9.1-4.9-8.9-6.8s1.5-1.5,2.4-1.9c4.3-1.7,11-.8,14,3.7,1.8,2.7,1.6,5.6,1.3,9.4-.2,2.2-.4,4.3-1.3,4.6S260.2,63.9,255.3,59.4Z"/>
	<path class="cls-1" d="M267.2,109.3a25,25,0,0,0,.5-4.7,6.4,6.4,0,0,0-5.6-5.6,6.2,6.2,0,0,0-6.5,4.5,4.3,4.3,0,0,1,4.9-2.4c2.3.7,3.8,4,2.1,6a4.2,4.2,0,0,1-3,1.2,29.3,29.3,0,0,1-25.4-13.4,23.3,23.3,0,0,1-3.8-9.4,12.9,12.9,0,0,1-.1-2.8,24.4,24.4,0,0,0,.1-2.7,3.7,3.7,0,0,0-2.6-2.9,3.2,3.2,0,0,0-3.1,1.3,4.5,4.5,0,0,0-.7,3.4c.4,2.7,2.5,4.5,4.1,6.5s4.4,7.2,7.2,10.4,3.5,3.8,5.3,5.6a2.4,2.4,0,0,1,.8,1.5c-.1,1.4-2.4,2-4.1,2.9a17.2,17.2,0,0,0-6.9,6.7,14.4,14.4,0,0,0-1.3,10,15.8,15.8,0,0,0,5.3,8.7c3.8,3.2,8.8,4.6,13.7,4.8a16.3,16.3,0,0,0,9.5-1.9c2.8-1.7,4.8-5,4-8.2a6.3,6.3,0,0,0-4.2-4.7,6.4,6.4,0,0,0-6.1,1.3c-2.3,2-2.9,5.4-5.9,6.6a8.8,8.8,0,0,1-4.3.5c-4.4-.5-9.4-4.5-9.9-9.9s4.7-10.2,5.6-10.9c4.8-3.6,10.4-3,14.7-2.6s7.3.6,10.3,3.1c5,4,6.3,12.9,6,18.8s-2.4,12.6-7.3,16.3a18.3,18.3,0,0,1-9.2,3.5,28,28,0,0,1-22.5-7.5,23.7,23.7,0,0,1-3.1-4.2c-2.5-4.6-2.6-8.5-3.4-14.5-.5-4-1.4-7.9-2.1-11.9a144.3,144.3,0,0,0-7.8-28.1,162.7,162.7,0,0,1,5.7,33.3s1.2,16.8-2.1,26.9a59.9,59.9,0,0,1-6.3,12.5l-.5.7a26.9,26.9,0,0,1-3.6,4.2c1.6-1.4,7.1-6.5,13.4-8.6,4.3-1.5,7.7-1,11.9-.7,14.9,1.1,25.4,1.9,32.1-3.2s10.1-17.3,7.7-25.6C269.3,118.9,266.4,114.9,267.2,109.3Z"/>

	<path/>

	<path class="cls-1" d="M306.7,78.4c.4,1.7.7,3,.8,3.8s1.9,10.8-2.9,16.7a5.6,5.6,0,0,1-2.5,1.8,2.7,2.7,0,0,1-2.8-.7,2.9,2.9,0,0,1-.3-2.7,11.9,11.9,0,0,1,1.3-2.5,11.4,11.4,0,0,0,1.9-5.8,6.6,6.6,0,0,0-2.6-5.4,5.7,5.7,0,0,0-7.8,1.7c-1.4,2.6-.5,5.9,1,8.4l1.2,1.8.8,1.3c.8,1.7,1,9.4,1,9.4a17.2,17.2,0,0,0,2,8.9,17.5,17.5,0,0,0,4.5,4.8,21.7,21.7,0,0,0,4.6,3.1c-2.4-2.7-4.3-6.3-4-10s1.8-6.2,2.5-7.7a58.9,58.9,0,0,1,4.2-7c3.4-5.6,3.4-12.3,1.6-18.4s-5.3-10.8-8.3-16a22.8,22.8,0,0,1-3.4-8.6,11.6,11.6,0,0,1,1.5-7.7c1.5-2.2,3.7-4.1,4.4-6.7a7.7,7.7,0,0,0-1.1-5.9,9.2,9.2,0,0,0-9.9-4c-5.3,1.5-6.1,8.1-6.1,8.6-.4,3.3,1,5.4,5,12.1C302,66,305,71.5,306.7,78.4Z"/>
	<path class="cls-1" d="M310.6,127.5a6.7,6.7,0,0,0-2.1-1.9,8.3,8.3,0,0,0-1.6-.9l-1.1-.4a22.5,22.5,0,0,1-5.7-3.6,21.1,21.1,0,0,1-3.4-4,17.6,17.6,0,0,1-2.4-6.7c-.4-3,.2-4.9-.4-9a38.6,38.6,0,0,0-.7-3.8c-.1,2.4-.3,5.8-1.6,6.1s-4.4-4-5.7-7.3a25.7,25.7,0,0,1-.2-16.6c2.1-6.2,7.3-14.7,11.8-13.9,1.7.2,2.9,1.8,3.7,3.2a9.5,9.5,0,0,0-2-3.4,6.4,6.4,0,0,0-2-1.2c-1.4-.4-2,0-2.7-.4s-.8-2.2-.8-3.1a19.7,19.7,0,0,0-2-8.8,23,23,0,0,1,.8,8.6c-.6,5.2-3.4,7-6.6,13.8a52.2,52.2,0,0,0-3.6,10.1c-2.3,10.3,4.7,17.7,8.4,26.5a18.9,18.9,0,0,1,1.5,10,26,26,0,0,1-2.1,6.5c-1.8,4.5-3.2,9.7-2.4,14.5a9.4,9.4,0,0,0,5.5,6.9,8.1,8.1,0,0,0,6.3-.2,7,7,0,0,1-6.5-1.3,9.6,9.6,0,0,1-3.1-6.7,24.1,24.1,0,0,1,2.2-11.5c.9-1.9,3-6.4,6.3-6.5s6.3,4.5,6.8,6.6l.2.8a28.8,28.8,0,0,1-.1,3.9c0,4.2.2,6.8.4,12s.9,8.6,2.3,9.3a3.2,3.2,0,0,0,1.6.1c.6-.2,1.6-.9,2.6-4.8s.5-5.3.2-8.3C311.4,131.5,312.5,130.2,310.6,127.5Z"/>
	<path class="cls-1" d="M301.5,150.5c-1.8-.5-2.5.4-5.8.1a10.9,10.9,0,0,1-4.1-1.1,8,8,0,0,1-3.4-3.1c-3.5-5.1-1.2-13.9-1.2-13.9h0a25.2,25.2,0,0,0-1.5,9.1,23.3,23.3,0,0,0,1.9,7.7,19.7,19.7,0,0,0,1.3,2.8c1.6,3.4,1.1,12.5,5.2,15.7,2.1,1.6,5.2,1.3,7,.6,4.8-1.8,6.9-8.9,4.8-13.6C305.5,154.2,304.2,151.2,301.5,150.5Z"/>

	<path/>

	<path class="cls-1" d="M342.2,138.5a53.8,53.8,0,0,1-8.8-11.7,44.2,44.2,0,0,1-5.4-18.3c-.1-1.6-.2-4.1.1-4.1s.8,4.7,2.9,10.6a49.9,49.9,0,0,0,6,12,40.8,40.8,0,0,0,7.8,9.1c.2-.1-3.4-3.8-7-10.1-.3-.6-1.4-2.5-2.5-5-2-4.4-4.3-9.4-4.6-15.6A31.9,31.9,0,0,1,332.1,95c.5-1.5,2.6-8.3,8.2-13.2a10.1,10.1,0,0,1,6.1-2.8,9.4,9.4,0,0,1,3.4.6c5.5,1.8,6.6,5.8,11,8.1s10.4,1.2,11.6.9c7.7-2.3,9.5-10.2,9.6-10.7,1.4-6.5-1.9-13.7-7.4-17.4s-16.8-3-22.2.2c-2.7,1.6-6.3,4.8-7.9,3.7s-.6-1-.7-1.1c-.5-3.3,6.6-6.7,11.3-8.3a44.2,44.2,0,0,1,21.4-1.2c0-.1-14.8-5.3-28.2.6-7.9,3.5-12,9.5-15.5,14.5A52.8,52.8,0,0,0,324,91.4c-.5,3.8-3.5,25.9,12,43a56.2,56.2,0,0,0,14.7,11.5A90.2,90.2,0,0,1,342.2,138.5Zm21-67.1a4.8,4.8,0,0,1,4.3-3.1,5.2,5.2,0,0,1,4.6,2.6,5.5,5.5,0,0,1,.3,5.3,3.3,3.3,0,0,1-1.1,1.5,3.9,3.9,0,0,1-1.1.6,6,6,0,0,1-2.7.7C363.5,78.8,362,74.8,363.2,71.4Z"/>
	<path class="cls-1" d="M383,56.1c-.1.2,4.4,3.3,8.5,7.4a53.3,53.3,0,0,1,8.8,11.8,44.2,44.2,0,0,1,5.4,18.3c.1,1.6-.1,1.4-.4,1.4s-.6-2-2.6-8a61.6,61.6,0,0,0-6-11.9,40.8,40.8,0,0,0-7.8-9.1c-.2.1,3.4,3.7,7,10,.3.6,1.4,2.5,2.5,5.1,2,4.3,4.2,9.3,4.5,15.5a27.8,27.8,0,0,1-1.4,10.5,28.8,28.8,0,0,1-8.1,13.1c-2,1.7-3.8,2.8-6.2,2.8a7.5,7.5,0,0,1-3.4-.5c-5.4-1.8-6.6-5.8-10.9-8.1a15.6,15.6,0,0,0-11.6-.9c-7.8,2.3-9.6,10.2-9.7,10.6-1.3,6.5,2,13.8,7.5,17.5s16.8,3,22.1-.2c2.8-1.6,6.4-4.9,8-3.8a1.7,1.7,0,0,1,.6,1.2c.5,3.3-6.6,6.7-11.3,8.3a43.1,43.1,0,0,1-21.3,1.1c0,.2,15.2,4.4,28.2-.6,9-3.4,14.1-10.4,16.5-13.6a47.9,47.9,0,0,0,8.6-23.9c.3-2.8,2.5-25.3-12.8-42.4A57.1,57.1,0,0,0,383,56.1ZM371,131a5.1,5.1,0,0,1-4.1,2.9,5.3,5.3,0,0,1-4.7-2,3.1,3.1,0,0,1-.8-1.5,4.9,4.9,0,0,1-.1-1.2,4.8,4.8,0,0,1,.6-2.6c1.8-3.4,5.8-3.1,8.3-.6A4.8,4.8,0,0,1,371,131Z"/>

	<path/>

	<path class="cls-1" d="M431.5,102.7c9.2,4.4,15,.1,33,2a28.6,28.6,0,0,1,12.5,3.9,57.6,57.6,0,0,1,5.4,3.9c.1-.2-4-4.6-7.6-7.4-14.6-11.4-27.6-2.3-38.7-11.4-9.1-7.4-8.4-20.4-8.3-22,.5-10.2,6.8-21.4,17.6-24.2,7.1-1.8,15.8,2,19.1,8.3a8.7,8.7,0,0,1,.2,8.4c-.8,1.5-2.1,2.6-3,4.1a3.7,3.7,0,0,0-.5,1.1,6.1,6.1,0,0,0-.2,4,6,6,0,0,0,4.4,3.9,6.7,6.7,0,0,0,5.7-1.7c2.1-1.8,2.8-4.5,3-7.2a20.2,20.2,0,0,0-6.6-15.7l-4-3.2a2.1,2.1,0,0,1-1-1.6c0-.3,0-.5.2-.6s1.6-.2,2.1-.1c7.7,2.4,11.3,10.8,11.3,10.8a29.1,29.1,0,0,1,2.1,9.7c.2,0,.9-5.1-1.1-10.6a22.9,22.9,0,0,0-8.5-10.9c-6.4-4.3-13-4.1-16.1-4s-13.8.5-22.1,9.8a31.3,31.3,0,0,0-7.3,15.6,32.1,32.1,0,0,0,1.7,18.8c3.2,7.5,8.8,11.9,7.7,13.2s-2.5-.1-4.2-.7a19.5,19.5,0,0,1-7.7-5.5A28,28,0,0,0,431.5,102.7Z"/>
	<path class="cls-1" d="M473,109.6c-6.6-2.9-13.6-2.9-27.5-2.9a41.7,41.7,0,0,1-4.6.2,39.4,39.4,0,0,1-10.6-1.8c-7-2.6-11.4-8.8-13.3-11.9,5.9,10.4,11.8,13.8,16.2,15,2.2.6,5.3.9,11.6,1.5s9.1.5,12.3,2.1a22.7,22.7,0,0,1,8,7c6.4,9.8,2.2,28.2-9.4,33.6-4.9,2.4-13,3.2-18.1-1.4-2.3-2.1-5.2-6.4-4.4-10.4s2.9-4,2.9-7.4a8.8,8.8,0,0,0-1.8-4.9,7.5,7.5,0,0,0-5.2-2.9,7.8,7.8,0,0,0-5.7,2,9,9,0,0,0-2.7,5.3c-1.4,7,3.4,13.5,4.5,15.1a28.6,28.6,0,0,0,16.6,10.6,24.2,24.2,0,0,0,15.1-1.1c12.1-5.4,15.2-20.9,15.7-24,1.9-10.8-1.6-18.2,1.5-20.1s9.5,4.1,9.6,4S479.7,112.6,473,109.6Z"/>
	<path class="cls-1" d="M452.1,68.9a6.7,6.7,0,0,0-.5-4.6c-1.3-2.3-4.2-3.2-6.4-3a7.9,7.9,0,0,0-5.9,3.7,8.4,8.4,0,0,0-1.2,4.5c.3,5.5,3.9,9.8,4.5,10.5a19.7,19.7,0,0,0,12,6,21.4,21.4,0,0,0,12.1-1.6,16.8,16.8,0,0,1-6.7.9c-2.4-.2-7.2-.5-9.6-4.1a8.9,8.9,0,0,1-1.1-7.4C450,71.6,451.5,71.4,452.1,68.9Z"/>
	<path class="cls-1" d="M449.2,136.7c2.5,1.1,6.8-.8,7.2-3.3a6.2,6.2,0,0,0-3-6.6c-.4-.2-3.9-2-6.7.5a4.4,4.4,0,0,0-1.5,3.6A6.9,6.9,0,0,0,449.2,136.7Z"/>
	
	
</svg>